<svg id="Сгруппировать_1201" data-name="Сгруппировать 1201" xmlns="http://www.w3.org/2000/svg" width="60" height="60" viewBox="0 0 60 60">
  <rect id="Прямоугольник_100" data-name="Прямоугольник 100" width="60" height="60" rx="30" fill="#222840"/>
  <path id="phone" d="M14.869,12.538l-2.126,2.109a1.538,1.538,0,0,1-1.135.431,9.832,9.832,0,0,1-4.875-1.837,18.8,18.8,0,0,1-5.69-6.207A8.031,8.031,0,0,1,0,3.5a1.548,1.548,0,0,1,.431-1.15L2.561.221A.7.7,0,0,1,3.712.413l1.71,3.243a.942.942,0,0,1-.192,1.071l-.783.783a.386.386,0,0,0-.08.224A6.677,6.677,0,0,0,6.381,8.7,6.68,6.68,0,0,0,9.17,10.678a.442.442,0,0,0,.408-.04l.911-.926a1.04,1.04,0,0,1,1.1-.16h.016l3.085,1.821a.742.742,0,0,1,.176,1.166Z" transform="translate(22.476 22)" fill="#fff"/>
</svg>
